<svg height="423.369140625" version="1.1" width="808.138671875" xmlns="http://www.w3.org/2000/svg" xmlns:xlink="http://www.w3.org/1999/xlink" viewBox="0 0 808.138671875 423.369140625" preserveAspectRatio="xMidYMid meet" style="overflow: hidden; position: relative;"><desc>Created with Raphaël @@VERSION</desc><defs><path stroke-linecap="round" d="M5,0 0,2.5 5,5z" id="raphael-marker-block"></path><marker id="raphael-marker-endblock33-obj47" markerHeight="3" markerWidth="3" orient="auto" refX="1.5" refY="1.5"><use NS1:href="#raphael-marker-block" transform="rotate(180 1.5 1.5) scale(0.6,0.6)" stroke-width="1.6667" fill="black" stroke="none"></use></marker><marker id="raphael-marker-endblock33-obj48" markerHeight="3" markerWidth="3" orient="auto" refX="1.5" refY="1.5"><use NS2:href="#raphael-marker-block" transform="rotate(180 1.5 1.5) scale(0.6,0.6)" stroke-width="1.6667" fill="black" stroke="none"></use></marker><marker id="raphael-marker-endblock33-obj49" markerHeight="3" markerWidth="3" orient="auto" refX="1.5" refY="1.5"><use NS3:href="#raphael-marker-block" transform="rotate(180 1.5 1.5) scale(0.6,0.6)" stroke-width="1.6667" fill="black" stroke="none"></use></marker><marker id="raphael-marker-endblock33-obj51" markerHeight="3" markerWidth="3" orient="auto" refX="1.5" refY="1.5"><use NS4:href="#raphael-marker-block" transform="rotate(180 1.5 1.5) scale(0.6,0.6)" stroke-width="1.6667" fill="black" stroke="none"></use></marker><marker id="raphael-marker-endblock33-obj53" markerHeight="3" markerWidth="3" orient="auto" refX="1.5" refY="1.5"><use NS5:href="#raphael-marker-block" transform="rotate(180 1.5 1.5) scale(0.6,0.6)" stroke-width="1.6667" fill="black" stroke="none"></use></marker><marker id="raphael-marker-endblock33-obj55" markerHeight="3" markerWidth="3" orient="auto" refX="1.5" refY="1.5"><use NS6:href="#raphael-marker-block" transform="rotate(180 1.5 1.5) scale(0.6,0.6)" stroke-width="1.6667" fill="black" stroke="none"></use></marker><marker id="raphael-marker-endblock33-obj57" markerHeight="3" markerWidth="3" orient="auto" refX="1.5" refY="1.5"><use NS7:href="#raphael-marker-block" transform="rotate(180 1.5 1.5) scale(0.6,0.6)" stroke-width="1.6667" fill="black" stroke="none"></use></marker><marker id="raphael-marker-endblock33-obj58" markerHeight="3" markerWidth="3" orient="auto" refX="1.5" refY="1.5"><use NS8:href="#raphael-marker-block" transform="rotate(180 1.5 1.5) scale(0.6,0.6)" stroke-width="1.6667" fill="black" stroke="none"></use></marker><marker id="raphael-marker-endblock33-obj59" markerHeight="3" markerWidth="3" orient="auto" refX="1.5" refY="1.5"><use NS9:href="#raphael-marker-block" transform="rotate(180 1.5 1.5) scale(0.6,0.6)" stroke-width="1.6667" fill="black" stroke="none"></use></marker></defs><a NS10:href="http://www.google.com" NS11:show="new"><rect x="0" y="0" width="49.578125" height="35.65625" rx="20" ry="20" fill="#ffff00" stroke="#008000" stroke-width="3" class="flowchart" id="st" transform="matrix(1,0,0,1,68.0234,27.5234)" style=""></rect></a><a NS12:href="http://www.google.com" NS13:show="new"><text x="10" y="17.828125" text-anchor="start" font-family="&quot;Arial&quot;" font-size="14px" stroke="none" fill="#ff0000" id="stt" class="flowchartt" transform="matrix(1,0,0,1,68.0234,27.5234)" stroke-width="1" style="text-anchor: start; font-family: Arial; font-size: 14px;"><tspan dy="4.859375">Start</tspan></text></a><rect x="0" y="0" width="104.046875" height="35.65625" rx="0" ry="0" fill="#ffffff" stroke="#000000" stroke-width="3" class="flowchart" id="op1" transform="matrix(1,0,0,1,40.7891,140.7031)" style="cursor: pointer;"></rect><text x="10" y="17.828125" text-anchor="start" font-family="&quot;Arial&quot;" font-size="14px" stroke="none" fill="#000000" id="op1t" class="flowchartt" transform="matrix(1,0,0,1,40.7891,140.7031)" stroke-width="1" style="text-anchor: start; font-family: Arial; font-size: 14px; cursor: pointer;"><tspan dy="4.859375">My Operation</tspan></text><a NS14:href="http://www.google.com"><path fill="#ffffff" stroke="#000000" d="M27.01171875,19.67578125L0,39.3515625L54.0234375,78.703125L108.046875,39.3515625L54.0234375,0L0,39.3515625" stroke-width="3" id="cond" class="flowchart" transform="matrix(1,0,0,1,233.625,119.1797)" style=""></path></a><a NS15:href="http://www.google.com"><text x="32.01171875" y="39.3515625" text-anchor="start" font-family="&quot;Arial&quot;" font-size="14px" stroke="none" fill="#000000" id="condt" class="flowchartt" transform="matrix(1,0,0,1,233.625,119.1797)" stroke-width="1" style="text-anchor: start; font-family: Arial; font-size: 14px;"><tspan dy="-3.546875">Yes </tspan><tspan dy="16.8" x="32.01171875">or No?</tspan><tspan dy="16.8" x="32.01171875"></tspan></text></a><path fill="#ffffff" stroke="#000000" d="M35.478515625,17.7392578125L0,35.478515625L70.95703125,70.95703125L141.9140625,35.478515625L70.95703125,0L0,35.478515625" stroke-width="3" id="c2" class="flowchart" transform="matrix(1,0,0,1,413.5273,123.0527)" style=""></path><text x="40.478515625" y="35.478515625" text-anchor="start" font-family="&quot;Arial&quot;" font-size="14px" stroke="none" fill="#000000" id="c2t" class="flowchartt" transform="matrix(1,0,0,1,413.5273,123.0527)" stroke-width="1" style="text-anchor: start; font-family: Arial; font-size: 14px;"><tspan dy="4.853515625">Good idea</tspan></text><path fill="#0000ff" stroke="#000000" d="M10,17.828125L0,35.65625L153.625,35.65625L173.625,0L20,0L10,17.828125" stroke-width="3" id="io" class="flowchart" transform="matrix(1,0,0,1,397.6719,271.5332)" style=""></path><text x="30" y="17.828125" text-anchor="start" font-family="&quot;Arial&quot;" font-size="14px" stroke="none" fill="#000000" id="iot" class="flowchartt" transform="matrix(1,0,0,1,397.6719,271.5332)" stroke-width="1" style="text-anchor: start; font-family: Arial; font-size: 14px;"><tspan dy="4.859375">catch something...</tspan></text><a NS16:href="http://www.google.com"><rect x="0" y="0" width="44.921875" height="35.65625" rx="20" ry="20" fill="#ffffff" stroke="#000000" stroke-width="3" class="end-element" id="e" transform="matrix(1,0,0,1,462.0234,384.7129)" style=""></rect></a><a NS17:href="http://www.google.com"><text x="10" y="17.828125" text-anchor="start" font-family="&quot;Arial&quot;" font-size="14px" stroke="none" fill="#000000" id="et" class="end-elementt" transform="matrix(1,0,0,1,462.0234,384.7129)" stroke-width="1" style="text-anchor: start; font-family: Arial; font-size: 14px;"><tspan dy="4.859375">End</tspan></text></a><rect x="0" y="0" width="48.796875" height="35.65625" rx="0" ry="0" fill="#ffffff" stroke="#000000" stroke-width="3" class="flowchart" id="op2" transform="matrix(1,0,0,1,673.8555,140.7031)" style=""></rect><text x="10" y="17.828125" text-anchor="start" font-family="&quot;Arial&quot;" font-size="14px" stroke="none" fill="#000000" id="op2t" class="flowchartt" transform="matrix(1,0,0,1,673.8555,140.7031)" stroke-width="1" style="text-anchor: start; font-family: Arial; font-size: 14px;"><tspan dy="4.859375">Stuff</tspan></text><rect x="0" y="0" width="130.28125" height="35.65625" rx="0" ry="0" fill="#ffffff" stroke="#000000" stroke-width="3" class="flowchart" id="sub1" transform="matrix(1,0,0,1,222.5078,275.4063)" style=""></rect><rect x="10" y="0" width="110.28125" height="35.65625" rx="0" ry="0" fill="#ffffff" stroke="#000000" stroke-width="3" id="sub1i" transform="matrix(1,0,0,1,222.5078,275.4063)" style=""></rect><text x="20" y="17.828125" text-anchor="start" font-family="&quot;Arial&quot;" font-size="14px" stroke="none" fill="#000000" id="sub1t" class="flowchartt" transform="matrix(1,0,0,1,222.5078,275.4063)" stroke-width="1" style="text-anchor: start; font-family: Arial; font-size: 14px;"><tspan dy="4.859375">My Subroutine</tspan></text><path fill="none" stroke="#000000" d="M92.8125,63.1796875C92.8125,63.1796875,92.8125,119.65465292334557,92.8125,136.20005294971634" stroke-width="3" marker-end="url(#raphael-marker-endblock33-obj47)" style=""></path><path fill="none" stroke="#000000" d="M144.8359375,158.53125C144.8359375,158.53125,211.08126197196543,158.53125,229.13052518258883,158.53125" stroke-width="3" marker-end="url(#raphael-marker-endblock33-obj48)" style=""></path><path fill="none" stroke="#000000" d="M341.671875,158.53125C341.671875,158.53125,393.30154675245285,158.53125,409.0324623645283,158.53125" stroke-width="3" marker-end="url(#raphael-marker-endblock33-obj49)" style=""></path><text x="346.671875" y="148.53125" text-anchor="start" font-family="&quot;Arial&quot;" font-size="14px" stroke="none" fill="#000000" stroke-width="1" style="text-anchor: start; font-family: Arial; font-size: 14px;"><tspan dy="4.859375">yes</tspan></text><path fill="none" stroke="#000000" d="M287.6484375,197.8828125C287.6484375,197.8828125,287.6484375,254.35777792334557,287.6484375,270.90317794971634" stroke-width="3" marker-end="url(#raphael-marker-endblock33-obj51)" style=""></path><text x="292.6484375" y="207.8828125" text-anchor="start" font-family="&quot;Arial&quot;" font-size="14px" stroke="none" fill="#000000" stroke-width="1" style="text-anchor: start; font-family: Arial; font-size: 14px;"><tspan dy="4.8515625">no</tspan></text><path fill="none" stroke="#000000" d="M484.484375,194.009765625C484.484375,194.009765625,484.484375,250.48473104834557,484.484375,267.03013107471634" stroke-width="3" marker-end="url(#raphael-marker-endblock33-obj53)" style=""></path><text x="489.484375" y="204.009765625" text-anchor="start" font-family="&quot;Arial&quot;" font-size="14px" stroke="none" fill="#000000" stroke-width="1" style="text-anchor: start; font-family: Arial; font-size: 14px;"><tspan dy="4.853515625">yes</tspan></text><path fill="none" stroke="#000000" d="M555.44140625,158.53125C555.44140625,158.53125,647.7283425331116,158.53125,669.3580932244658,158.53125" stroke-width="3" marker-end="url(#raphael-marker-endblock33-obj55)" style=""></path><text x="560.44140625" y="148.53125" text-anchor="start" font-family="&quot;Arial&quot;" font-size="14px" stroke="none" fill="#000000" stroke-width="1" style="text-anchor: start; font-family: Arial; font-size: 14px;"><tspan dy="4.859375">no</tspan></text><path fill="none" stroke="#000000" d="M484.484375,307.189453125C484.484375,307.189453125,484.484375,363.66441854834557,484.484375,380.20981857471634" stroke-width="3" marker-end="url(#raphael-marker-endblock33-obj57)" style=""></path><path fill="none" stroke="#000000" d="M698.25390625,176.359375C698.25390625,176.359375,698.25390625,359.712890625,698.25390625,359.712890625C698.25390625,359.712890625,484.484375,359.712890625,484.484375,359.712890625C484.484375,359.712890625,484.484375,373.0168619155884,484.484375,380.2145182583481" stroke-width="3" marker-end="url(#raphael-marker-endblock33-obj58)" style=""></path><path fill="none" stroke="#000000" d="M222.5078125,293.234375C222.5078125,293.234375,157.66015625,293.234375,157.66015625,293.234375C157.66015625,293.234375,157.66015625,164.53125,157.66015625,164.53125C157.66015625,164.53125,169.66015625,158.53125,157.66015625,152.53125C157.66015625,152.53125,157.66015625,115.703125,157.66015625,115.703125C157.66015625,115.703125,92.8125,115.703125,92.8125,115.703125C92.8125,115.703125,92.8125,129.00709629058838,92.8125,136.2047526333481" stroke-width="3" marker-end="url(#raphael-marker-endblock33-obj59)" style=""></path></svg>
